<svg xmlns="http://www.w3.org/2000/svg" xml:space="preserve" width="64" height="64" fill="#828FA3" viewBox="0 0 219 219"><path d="M176 109.719V74.5c0-21.31-6.423-39.839-18.892-53.582C144.872 7.429 128.106 0 109.75 0S74.42 7.429 62.183 20.918C49.715 34.661 43 53.19 43 74.5v35.219c-7 2.168-13 9.077-13 17.281v74c0 9.941 8.392 18 18.333 18h123c9.941 0 17.667-8.059 17.667-18v-74c0-8.204-5-15.113-13-17.281zm-66.917 67.614c-7.364 0-13.333-5.97-13.333-13.333 0-7.364 5.969-13.333 13.333-13.333s13.333 5.97 13.333 13.333c.001 7.364-5.969 13.333-13.333 13.333zM151 109H68V74.5C68 45.355 85.065 25 109.5 25S151 45.355 151 74.5V109z"/></svg>