<svg xmlns="http://www.w3.org/2000/svg" width="20" height="20" fill="#635FC7" viewBox="0 0 48 48"><g data-name="Layer 2"><path fill="none" d="M0 0h48v48H0z" data-name="invisible box"/><g data-name="icons Q2"><path d="M44 42V6a2 2 0 0 0-2-2H6a2 2 0 0 0-2 2v5a2 2 0 0 0 2.3 2A2.1 2.1 0 0 0 8 10.9V8h32v32H8v-3a2 2 0 0 0-2.3-2A2.1 2.1 0 0 0 4 37.1V42a2 2 0 0 0 2 2h36a2 2 0 0 0 2-2Z"/><path d="m22.5 34.4 8.9-9a1.9 1.9 0 0 0 0-2.8l-8.9-9a2.1 2.1 0 0 0-2.7-.2 1.9 1.9 0 0 0-.2 3l5.6 5.6H6a2 2 0 0 0 0 4h19.2l-5.6 5.6a1.9 1.9 0 0 0 .2 3 2.1 2.1 0 0 0 2.7-.2Z"/></g></g></svg>
