<!DOCTYPE svg PUBLIC "-//W3C//DTD SVG 1.1//EN" "http://www.w3.org/Graphics/SVG/1.1/DTD/svg11.dtd">

<!-- Uploaded to: SVG Repo, www.svgrepo.com, Transformed by: SVG Repo Mixer Tools -->
<svg fill="#858585" width="64px" height="64px" viewBox="-102.4 -102.4 1228.80 1228.80" xmlns="http://www.w3.org/2000/svg" stroke="#858585">

<g id="SVGRepo_bgCarrier" stroke-width="0"/>

<g id="SVGRepo_tracerCarrier" stroke-linecap="round" stroke-linejoin="round"/>

<g id="SVGRepo_iconCarrier">

<path d="M896 512c0-212.077-171.921-384-384-384-212.077 0-384 171.923-384 384 0 212.079 171.923 384 384 384 212.079 0 384-171.921 384-384zM579.883 398.863c12.497-12.497 32.759-12.497 45.257 0 12.493 12.497 12.493 32.757 0 45.254L557.257 512l67.878 67.883c12.497 12.497 12.497 32.759 0 45.257-12.493 12.493-32.755 12.493-45.252 0L512 557.257l-67.883 67.883c-12.497 12.493-32.757 12.493-45.254 0-12.497-12.497-12.497-32.759 0-45.257L466.744 512l-67.881-67.883c-12.497-12.497-12.497-32.758 0-45.254s32.757-12.497 45.254 0L512 466.744l67.883-67.881z"/>

</g>

</svg>