<!DOCTYPE svg PUBLIC "-//W3C//DTD SVG 1.1//EN" "http://www.w3.org/Graphics/SVG/1.1/DTD/svg11.dtd">
<!-- Uploaded to: SVG Repo, www.svgrepo.com, Transformed by: SVG Repo Mixer Tools -->
<svg fill="#000000" version="1.1" id="Layer_1" xmlns="http://www.w3.org/2000/svg" xmlns:xlink="http://www.w3.org/1999/xlink" viewBox="0 0 24 24" xml:space="preserve" width="90px" height="90px">
<g id="SVGRepo_bgCarrier" stroke-width="0"/>
<g id="SVGRepo_tracerCarrier" stroke-linecap="round" stroke-linejoin="round"/>
<g id="SVGRepo_iconCarrier"> <style type="text/css"> .st0{fill:none;} </style> <path d="M20,2H4C2.9,2,2,2.9,2,4v16c0,1.1,0.9,2,2,2h16c1.1,0,2-0.9,2-2V4C22,2.9,21.1,2,20,2z M17.6,8.8c0,0.1,0,0.2,0,0.4 c0,3.8-2.9,8.2-8.2,8.2c-1.6,0-3.1-0.5-4.4-1.3c0.2,0,0.5,0,0.7,0c1.3,0,2.6-0.5,3.6-1.2c-1.3,0-2.3-0.9-2.7-2C6.8,12.9,7,13,7.1,13 c0.3,0,0.5,0,0.8-0.1c-1.3-0.3-2.3-1.4-2.3-2.8l0,0c0.4,0.2,0.8,0.3,1.3,0.4C6.1,9.8,5.6,9,5.6,8c0-0.5,0.1-1,0.4-1.4 c1.4,1.7,3.5,2.9,5.9,3c0-0.2-0.1-0.4-0.1-0.7c0-1.6,1.3-2.9,2.9-2.9c0.8,0,1.6,0.3,2.1,0.9c0.7-0.1,1.3-0.4,1.8-0.7 c-0.2,0.7-0.7,1.2-1.3,1.6c0.6-0.1,1.1-0.2,1.7-0.5C18.6,7.9,18.1,8.4,17.6,8.8z"/> <rect class="st0" width="24" height="24"/> </g>
</svg>