<svg xmlns="http://www.w3.org/2000/svg" width="24" height="24" fill="none" viewBox="0 0 24 24"><path fill="#635FC7" fill-rule="evenodd" d="M21.121 2.707a3 3 0 0 0-4.242 0l-1.68 1.68-7.906 7.906a1 1 0 0 0-.263.464l-1 4a1 1 0 0 0 1.213 1.213l4-1a1 1 0 0 0 .464-.263l7.849-7.848 1.737-1.738a3 3 0 0 0 0-4.242l-.172-.172Zm-2.828 1.414a1 1 0 0 1 1.414 0l.172.172a1 1 0 0 1 0 1.414l-1.017 1.017-1.555-1.617.986-.986Zm-2.4 2.4 1.555 1.617-6.96 6.959-2.114.529.529-2.115 6.99-6.99ZM4 8a1 1 0 0 1 1-1h5a1 1 0 1 0 0-2H5a3 3 0 0 0-3 3v11a3 3 0 0 0 3 3h11a3 3 0 0 0 3-3v-5a1 1 0 0 0-2 0v5a1 1 0 0 1-1 1H5a1 1 0 0 1-1-1V8Z" clip-rule="evenodd"/></svg>
