<svg xmlns="http://www.w3.org/2000/svg" width="250" height="161" fill="none"><path fill="#fff" d="M48.694 15.421C23.379 25.224 4.594 50.068.858 80.128c-3.12 25.331 4.335 53.318 48.23 61.291 85.406 15.52 173.446 17.335 193.864-24.525 20.417-41.86-7.525-108.891-50.873-113.53C157.683-.326 98.146-3.721 48.694 15.42Z" opacity=".3"/><path fill="#333" d="M157.022 9.567H93.044a7.266 7.266 0 0 0-7.266 7.267v120.91a7.266 7.266 0 0 0 7.266 7.266h63.978a7.266 7.266 0 0 0 7.267-7.266V16.834a7.266 7.266 0 0 0-7.267-7.267"/><path fill="#333" d="M125.033 140.872a5.687 5.687 0 1 0 0-11.374 5.687 5.687 0 0 0 0 11.374" opacity=".03"/><path fill="#EFEBFF" d="M156.628 21.321H93.431V126.78h63.197z"/><path fill="#333" d="M117.797 120.508a2.065 2.065 0 1 0 0-4.13 2.065 2.065 0 0 0 0 4.13" opacity=".03"/><path fill="#fff" d="M125.033 120.508a2.066 2.066 0 1 0 0-4.132 2.066 2.066 0 0 0 0 4.132" opacity=".44"/><path fill="#333" d="M132.269 120.508a2.066 2.066 0 1 0 0-4.132 2.066 2.066 0 0 0 0 4.132m15.93-87.555h-46.332v39.552h46.332zm-13.826 47.176h-32.506v3.621h32.506zm13.826 0h-11.632v3.621h11.632zm-31.146 11.108h-15.186v3.622h15.186zm31.146 0H120.28v3.622h27.919zm-11.245 11.116h-35.087v3.622h35.087z" opacity=".03"/><path fill="#EFEBFF" d="M78.656 21.321H15.459V126.78h63.197z"/><path fill="#fff" d="M39.825 120.508a2.065 2.065 0 1 0 0-4.13 2.065 2.065 0 0 0 0 4.13" opacity=".44"/><path fill="#333" d="M47.061 120.508a2.065 2.065 0 1 0 0-4.13 2.065 2.065 0 0 0 0 4.13m7.236 0a2.065 2.065 0 1 0 0-4.13 2.065 2.065 0 0 0 0 4.13m15.93-87.555H23.895v39.552h46.332zM56.4 80.129H23.895v3.621H56.4zm13.827 0H58.595v3.621h11.632zM39.08 91.237H23.896v3.622H39.08zm31.147 0h-27.92v3.622h27.92zm-11.245 11.116H23.895v3.622h35.087z" opacity=".03"/><path fill="#EFEBFF" d="M234.6 21.321h-63.197V126.78H234.6z"/><path fill="#333" d="M195.769 120.508a2.065 2.065 0 1 0 0-4.13 2.065 2.065 0 0 0 0 4.13m7.236 0a2.066 2.066 0 1 0 0-4.132 2.066 2.066 0 0 0 0 4.132" opacity=".03"/><path fill="#fff" d="M210.242 120.508a2.066 2.066 0 1 0-.001-4.131 2.066 2.066 0 0 0 .001 4.131" opacity=".44"/><path fill="#333" d="M226.171 32.953h-46.332v39.552h46.332zm-13.826 47.176h-32.506v3.621h32.506zm13.826 0h-11.632v3.621h11.632zm-31.146 11.108h-15.186v3.622h15.186zm31.154 0H198.26v3.622h27.919zm-11.253 11.116h-35.087v3.622h35.087z" opacity=".03"/><path fill="#333" d="M146.597 145.041c0-.76-1.61-31.891-.577-36.522s10.509-27.274 8.011-29.917c-2.498-2.642-11.648 3.372-11.648 3.372s1.671-27.267-2.278-29.21-5.702 5.671-5.702 5.671L132.3 88.936l-10.418 55.96z" opacity=".1"/><path fill="#F4A28C" d="M139.559 113.295c1.328-5.316 3.325-10.502 4.601-15.87.843-3.553 6.295-18.405 7.821-22.779.47-1.344.873-2.969-.038-4.062a2.65 2.65 0 0 0-2.422-.76 4.84 4.84 0 0 0-2.339 1.223c-1.519 1.337-4.32 7.95-6.371 7.943-2.482 0-1.313-6.834-1.381-8.148-.281-5.656.136-12.908-2.073-18.223-1.64-3.948-5.71-3.417-6.667.85-.957 4.268-.919 22.15-.919 22.15s-15.884-2.727-18.595 2.118 1.868 35.618 1.868 35.618z"/><path fill="#633CFF" d="m141.495 160.5-.289-48.906-29.681-6.515L99.574 160.5z"/><path fill="#333" d="m141.495 160.5-.289-48.906-14.168-3.113-2.536 52.019z" opacity=".1"/></svg>