<svg xmlns="http://www.w3.org/2000/svg" width="183" height="40" fill="none"><path fill="#633CFF" fill-rule="evenodd" d="M5.774 34.225c2.443 2.442 6.37 2.442 14.226 2.442s11.785 0 14.225-2.442c2.442-2.438 2.442-6.368 2.442-14.225s0-11.785-2.442-14.226c-2.438-2.44-6.368-2.44-14.225-2.44s-11.785 0-14.226 2.44c-2.44 2.443-2.44 6.37-2.44 14.226s0 11.785 2.44 14.225m10.06-19.642A5.416 5.416 0 1 0 21.25 20a1.25 1.25 0 1 1 2.5 0 7.917 7.917 0 1 1-7.916-7.916 1.25 1.25 0 0 1 0 2.5ZM29.584 20a5.417 5.417 0 0 1-5.417 5.417 1.25 1.25 0 0 0 0 2.5A7.917 7.917 0 1 0 16.25 20a1.25 1.25 0 0 0 2.5 0 5.416 5.416 0 1 1 10.834 0" clip-rule="evenodd"/><path fill="#333" d="M61.247 32.15v-3.955l.346.07q-.345 1.925-2.077 3.08Q57.819 32.5 55.43 32.5q-2.424 0-4.225-1.12-1.766-1.155-2.735-3.22-.97-2.065-.97-4.865 0-2.835 1.004-4.935t2.805-3.255q1.835-1.155 4.26-1.155 2.526 0 4.085 1.19 1.593 1.19 1.87 3.255l-.38.035V6.95h5.194v25.2zm-4.155-3.85q1.835 0 2.978-1.295 1.143-1.33 1.143-3.78c0-2.45-.393-2.882-1.178-3.745q-1.143-1.33-3.012-1.33-1.801 0-2.978 1.33-1.143 1.33-1.143 3.78c0 2.45.38 2.882 1.143 3.745q1.177 1.295 3.047 1.295m21.709 4.2q-2.943 0-5.125-1.155-2.181-1.19-3.393-3.29-1.178-2.1-1.178-4.83 0-2.765 1.178-4.83a8.4 8.4 0 0 1 3.358-3.255q2.148-1.19 4.987-1.19 2.736 0 4.744 1.12a7.9 7.9 0 0 1 3.116 3.115q1.108 1.995 1.108 4.69 0 .56-.034 1.05a10 10 0 0 1-.104.875H72.153v-3.465h11.115l-.9.63q0-2.17-1.04-3.185-1.003-1.05-2.77-1.05-2.042 0-3.185 1.4-1.108 1.4-1.108 4.2 0 2.73 1.108 4.06 1.143 1.33 3.393 1.33 1.247 0 2.147-.42t1.35-1.365h4.883q-.866 2.59-2.978 4.095-2.078 1.47-5.367 1.47m15.879-.35L87.72 14.3h5.575l5.437 16.66h-2.91l5.403-16.66h5.436l-6.96 17.85h-5.02Zm13.989 0V6.95h5.194v25.2zm9.333 0V14.3h5.194v17.85zm-.173-20.23V6.25h5.54v5.67zm9.506 20.23V14.3h5.09v4.2h.104v13.65zm12.293 0V21.09q0-1.47-.762-2.205-.727-.735-2.147-.735-1.212 0-2.181.56a4.1 4.1 0 0 0-1.489 1.54q-.52.98-.52 2.31l-.45-4.305q.866-1.96 2.528-3.115 1.697-1.19 4.155-1.19 2.944 0 4.502 1.68 1.558 1.645 1.558 4.445V32.15zm9.147 0V6.95h5.194v25.2zm11.323 0-7.341-9.275 7.168-8.575h5.99l-8.414 9.38.242-1.645 8.519 10.115z"/><path fill="#333" d="M174.743 32.5q-3.878 0-6.163-1.575t-2.494-4.34h4.641q.172 1.19 1.177 1.82 1.038.595 2.839.595 1.628 0 2.355-.455.762-.49.762-1.365 0-.665-.45-1.015-.416-.386-1.558-.63l-2.84-.595q-3.151-.665-4.64-1.995-1.49-1.365-1.489-3.5 0-2.59 1.974-4.025 1.974-1.47 5.506-1.47 3.496 0 5.575 1.435 2.077 1.4 2.285 3.92h-4.64q-.138-.91-.97-1.365-.831-.49-2.354-.49-1.385 0-2.078.42-.658.385-.658 1.12 0 .63.554 1.015.554.35 1.835.63l3.186.665q2.667.56 4.017 2.1 1.385 1.505 1.385 3.57 0 2.625-2.043 4.095-2.008 1.435-5.714 1.435"/></svg>