<svg xmlns="http://www.w3.org/2000/svg" width="16" height="20" fill="none" viewBox="0 0 23 20"><path fill="#67BECE" d="M21.69 10.485a.7.7 0 0 1-.279-.059l-5.857-2.622a.684.684 0 0 1 0-1.247l5.857-2.613a.684.684 0 0 1 .902.344.684.684 0 0 1-.346.902L17.505 7.18l4.463 1.999a.682.682 0 0 1-.277 1.305"/><path fill="#3F54A3" d="M13.709 20A14.14 14.14 0 0 1 .022 9.43a.682.682 0 0 1 1.32-.345 12.776 12.776 0 0 0 12.367 9.55.682.682 0 0 1 0 1.365"/><path fill="#67BECE" d="M11.358 14.334a.68.68 0 0 1-.682-.682V.682a.682.682 0 0 1 1.364 0v12.97a.68.68 0 0 1-.682.682"/></svg>