<svg xmlns="http://www.w3.org/2000/svg" width="16" height="16" fill="none"><path fill="#737373" d="M15.513 8.388a.45.45 0 0 1-.2-.047l-4.189-2.098a.5.5 0 0 1-.21-.202.6.6 0 0 1 0-.593.5.5 0 0 1 .21-.202l4.189-2.091a.44.44 0 0 1 .373-.011c.12.052.219.155.271.287a.6.6 0 0 1 .01.418.53.53 0 0 1-.257.303l-3.19 1.593 3.191 1.599c.102.05.185.14.236.25.05.112.066.24.043.362a.56.56 0 0 1-.17.31.46.46 0 0 1-.308.122M9.804 16c-4.605 0-8.63-3.477-9.788-8.456a.6.6 0 0 1 .051-.414.5.5 0 0 1 .298-.252.44.44 0 0 1 .37.057.54.54 0 0 1 .225.333c.51 2.19 1.656 4.127 3.256 5.51 1.6 1.382 3.566 2.131 5.588 2.13.13 0 .253.058.345.16a.58.58 0 0 1 .143.386.58.58 0 0 1-.143.386.46.46 0 0 1-.345.16M8.123 11.468a.46.46 0 0 1-.345-.16.58.58 0 0 1-.143-.386V.546A.58.58 0 0 1 7.778.16.46.46 0 0 1 8.123 0c.13 0 .253.058.345.16a.58.58 0 0 1 .143.386v10.376a.58.58 0 0 1-.143.386.46.46 0 0 1-.345.16"/></svg>