<svg xmlns="http://www.w3.org/2000/svg" width="16" height="16" fill="none"><path fill="#737373" d="M14.973 4a5.7 5.7 0 0 1-1.64.46 2.87 2.87 0 0 0 1.253-1.587 5.8 5.8 0 0 1-1.813.7 2.82 2.82 0 0 0-2.107-.906 2.857 2.857 0 0 0-2.846 2.86q.001.34.073.653A8.13 8.13 0 0 1 2 3.193a2.83 2.83 0 0 0-.387 1.434c0 .993.5 1.873 1.273 2.373-.473 0-.913-.133-1.3-.333v.02c0 1.386.987 2.546 2.294 2.806-.42.115-.86.131-1.287.047a2.85 2.85 0 0 0 2.667 1.987 5.68 5.68 0 0 1-3.554 1.226 6 6 0 0 1-.68-.04A8.1 8.1 0 0 0 5.413 14c5.253 0 8.14-4.36 8.14-8.14 0-.127 0-.247-.007-.373.56-.4 1.04-.907 1.427-1.487"/></svg>