<svg xmlns="http://www.w3.org/2000/svg" width="16" height="16" fill="none"><path fill="#737373" d="m11 8.801-2.334 1.555v2.398L12.798 10zM9.798 8 8 6.8 6.202 8 8 9.198zm3.535-.755L12.202 8l1.131.754zM12.798 6 8.666 3.246v2.397L11 7.198zM5 7.198l2.333-1.555V3.246L3.202 6zM3.202 10l4.131 2.754v-2.398L5 8.801zm-.536-1.246L3.798 8l-1.132-.755zM1.333 6a.67.67 0 0 1 .297-.555l6-4a.67.67 0 0 1 .74 0l6 4a.67.67 0 0 1 .296.555v4a.67.67 0 0 1-.296.554l-6 4a.67.67 0 0 1-.74 0l-6-4A.67.67 0 0 1 1.333 10z"/></svg>