<svg xmlns="http://www.w3.org/2000/svg" width="16" height="16" fill="none"><path fill="#fff" d="M8.162 2.667c.356.002 1.247.01 2.194.048l.336.015c.952.045 1.904.122 2.377.253.63.177 1.125.693 1.292 1.348.267 1.04.3 3.068.304 3.56v.216c-.004.491-.037 2.52-.304 3.56a1.87 1.87 0 0 1-1.292 1.347c-.473.131-1.425.209-2.377.253l-.336.016c-.947.037-1.838.046-2.194.048h-.326c-.754-.004-3.904-.038-4.907-.317a1.88 1.88 0 0 1-1.292-1.348c-.267-1.04-.3-3.068-.304-3.56V7.89c.004-.492.037-2.52.304-3.56A1.87 1.87 0 0 1 2.93 2.984c1.002-.28 4.153-.313 4.906-.317zm-1.496 3v4.666l4-2.333z"/></svg>